<svg width="1321" height="528" viewBox="0 0 1321 528" fill="none" xmlns="http://www.w3.org/2000/svg">
<g clip-path="url(#clip0_25_749)">
<path d="M1223.21 425.085C1204.8 406.694 1190.09 392.235 1179.04 381.715C1168 371.203 1158.01 362.525 1149.07 355.689C1170.63 351.487 1189.95 344.252 1207.04 333.995C1224.12 323.747 1238.59 311.265 1250.42 296.533C1262.25 281.828 1271.31 265.261 1277.62 246.853C1283.94 228.453 1287.09 209 1287.09 188.495C1287.09 150.633 1278.53 119.616 1261.46 95.4346C1244.36 71.2533 1222.68 52.0547 1196.39 37.8573C1170.1 23.6613 1140.91 13.8026 1108.85 8.28398C1076.78 2.76532 1045.76 0.00530489 1015.79 0.00530489H705.06H676.671H105.678L0 137.227H247.637V527.613H410.888V137.227H570.203H599.377H1029.2C1057.59 137.227 1079.67 142.355 1095.45 152.604C1111.22 162.861 1119.11 178.237 1119.11 198.743C1119.11 217.152 1110.43 231.612 1093.08 242.124C1075.73 252.644 1054.43 257.891 1029.2 257.891H570.203V527.613H733.453V388.023H984.245L1101.75 527.613H1320.21L1223.21 425.085Z" fill="#EAEAEA"/>
</g>
<defs>
<clipPath id="clip0_25_749">
<rect width="1320.21" height="527.613" fill="white"/>
</clipPath>
</defs>
</svg>
