<svg width="1273" height="1059" viewBox="0 0 1273 1059" fill="none" xmlns="http://www.w3.org/2000/svg">
<path d="M60 60V0.5C40.4443 0.5 22.1372 10.1093 11.0297 26.2042C-0.0778806 42.2991 -2.56753 62.8245 4.37003 81.1082L60 60ZM1213 60L1267.55 83.7689C1275.56 65.375 1273.77 44.1803 1262.77 27.3963C1251.78 10.6124 1233.06 0.5 1213 0.5V60ZM572.07 999.293C572.07 1032.15 598.709 1058.79 631.57 1058.79C664.431 1058.79 691.07 1032.15 691.07 999.293H572.07ZM999.57 549.79L1029.93 600.96C1040.67 594.59 1049.13 585.004 1054.12 573.559L999.57 549.79ZM161.5 327.5L105.87 348.608C110.657 361.224 119.59 371.839 131.204 378.709L161.5 327.5ZM453.57 500.291H513.07C513.07 479.259 501.967 459.79 483.866 449.081L453.57 500.291ZM394.07 905.293C394.07 938.154 420.709 964.793 453.57 964.793C486.431 964.793 513.07 938.154 513.07 905.293H394.07ZM983.76 830.273C1012.22 846.703 1048.61 836.952 1065.04 808.494C1081.47 780.036 1071.72 743.646 1043.26 727.216L983.76 830.273ZM810.879 661.755L780.516 610.585C762.344 621.368 751.254 640.98 751.38 662.11C751.506 683.24 762.829 702.718 781.129 713.284L810.879 661.755ZM31.6123 112.291L603.182 422.582L659.958 317.999L88.3877 7.7086L31.6123 112.291ZM659.584 422.783L1241.01 112.493L1184.99 7.50731L603.556 317.798L659.584 422.783ZM572.07 370.291V999.293H691.07V370.291H572.07ZM1158.45 36.2311L945.024 526.021L1054.12 573.559L1267.55 83.7689L1158.45 36.2311ZM217.13 306.392L115.63 38.8918L4.37003 81.1082L105.87 348.608L217.13 306.392ZM131.204 378.709L423.274 551.5L483.866 449.081L191.796 276.291L131.204 378.709ZM513.07 905.293V500.291H394.07V905.293H513.07ZM781.129 713.284L983.76 830.273L1043.26 727.216L840.629 610.227L781.129 713.284ZM841.242 712.925L1029.93 600.96L969.207 498.621L780.516 610.585L841.242 712.925ZM60 119.5H1213V0.5H60V119.5Z" fill="#342B94"/>
<path d="M60 60V45C55.0567 45 50.4308 47.4355 47.6332 51.511C44.8357 55.5865 44.2257 60.7787 46.0025 65.3916L60 60ZM1214.5 60L1228.24 66.0275C1230.27 61.3893 1229.83 56.0373 1227.06 51.7967C1224.29 47.5562 1219.57 45 1214.5 45V60ZM616.57 999.293C616.57 1007.58 623.286 1014.29 631.57 1014.29C639.854 1014.29 646.57 1007.58 646.57 999.293H616.57ZM999.57 549.79L1007.22 562.69C1009.92 561.091 1012.05 558.688 1013.31 555.818L999.57 549.79ZM164 330L150.002 335.392C151.221 338.555 153.474 341.212 156.396 342.93L164 330ZM453.57 500.291H468.57C468.57 494.975 465.756 490.056 461.174 487.361L453.57 500.291ZM438.57 905.293C438.57 913.578 445.286 920.293 453.57 920.293C461.854 920.293 468.57 913.578 468.57 905.293H438.57ZM1006.01 791.734C1013.18 795.877 1022.36 793.418 1026.5 786.244C1030.64 779.07 1028.18 769.896 1021.01 765.754L1006.01 791.734ZM810.879 661.755L803.224 648.855C798.643 651.573 795.847 656.518 795.879 661.845C795.911 667.172 798.765 672.082 803.379 674.745L810.879 661.755ZM52.8434 73.1827L624.414 383.474L638.727 357.108L67.1566 46.8173L52.8434 73.1827ZM638.618 383.532L1221.55 73.241L1207.45 46.759L624.522 357.05L638.618 383.532ZM616.57 370.291V999.293H646.57V370.291H616.57ZM1200.76 53.9725L985.834 543.763L1013.31 555.818L1228.24 66.0275L1200.76 53.9725ZM177.998 324.608L73.9975 54.6084L46.0025 65.3916L150.002 335.392L177.998 324.608ZM156.396 342.93L445.966 513.221L461.174 487.361L171.604 317.07L156.396 342.93ZM468.57 905.293V500.291H438.57V905.293H468.57ZM803.379 674.745L1006.01 791.734L1021.01 765.754L818.379 648.765L803.379 674.745ZM818.533 674.655L1007.22 562.69L991.916 536.89L803.224 648.855L818.533 674.655ZM60 75H1214.5V45H60V75Z" fill="url(#paint0_linear_33_908)"/>
<defs>
<linearGradient id="paint0_linear_33_908" x1="616.494" y1="60" x2="616.494" y2="999.293" gradientUnits="userSpaceOnUse">
<stop stop-color="#FFA8E7"/>
<stop offset="1" stop-color="#FFEAC1"/>
</linearGradient>
</defs>
</svg>
