<svg id="e7xJ0Qshagi1" xmlns="http://www.w3.org/2000/svg" xmlns:xlink="http://www.w3.org/1999/xlink" viewBox="0 0 1273 1059" shape-rendering="geometricPrecision" text-rendering="geometricPrecision"><defs><linearGradient id="e7xJ0Qshagi3-fill" x1="616.494" y1="60" x2="616.494" y2="999.293" spreadMethod="pad" gradientUnits="userSpaceOnUse" gradientTransform="translate(0 0)"><stop id="e7xJ0Qshagi3-fill-0" offset="0%" stop-color="#ffa8e7"/><stop id="e7xJ0Qshagi3-fill-1" offset="100%" stop-color="#ffeac1"/></linearGradient></defs><path d="M60,60v-59.5c-19.5557,0-37.8628,9.6093-48.9703,25.7042s-13.59723,36.6203-6.65967,54.904L60,60Zm1153,0l54.55,23.7689c8.01-18.3939,6.22-39.5886-4.78-56.3726C1251.78,10.6124,1233.06,0.5,1213,0.5v59.5ZM572.07,999.293c0,32.857,26.639,59.497,59.5,59.497s59.5-26.64,59.5-59.497h-119ZM999.57,549.79l30.36,51.17c10.74-6.37,19.2-15.956,24.19-27.401L999.57,549.79ZM161.5,327.5l-55.63,21.108c4.787,12.616,13.72,23.231,25.334,30.101L161.5,327.5ZM453.57,500.291h59.5c0-21.032-11.103-40.501-29.204-51.21l-30.296,51.21Zm-59.5,405.002c0,32.861,26.639,59.5,59.5,59.5s59.5-26.639,59.5-59.5h-119Zm589.69-75.02c28.46,16.43,64.85,6.679,81.28-21.779s6.68-64.848-21.78-81.278l-59.5,103.057ZM810.879,661.755l-30.363-51.17c-18.172,10.783-29.262,30.395-29.136,51.525s11.449,40.608,29.749,51.174l29.75-51.529ZM31.6123,112.291L603.182,422.582l56.776-104.583L88.3877,7.7086L31.6123,112.291ZM659.584,422.783l581.426-310.29L1184.99,7.50731L603.556,317.798l56.028,104.985ZM572.07,370.291v629.002h119v-629.002h-119ZM1158.45,36.2311L945.024,526.021l109.096,47.538L1267.55,83.7689l-109.1-47.5378ZM217.13,306.392L115.63,38.8918L4.37003,81.1082L105.87,348.608l111.26-42.216Zm-85.926,72.317L423.274,551.5l60.592-102.419-292.07-172.79-60.592,102.418ZM513.07,905.293v-405.002h-119v405.002h119ZM781.129,713.284L983.76,830.273l59.5-103.057L840.629,610.227l-59.5,103.057Zm60.113-.359L1029.93,600.96L969.207,498.621L780.516,610.585l60.726,102.34ZM60,119.5h1153v-119h-1153v119Z" fill="#342b94"/><path d="M60,60v-15c-4.9433,0-9.5692,2.4355-12.3668,6.511s-3.4075,9.2677-1.6307,13.8806L60,60Zm1154.5,0l13.74,6.0275c2.03-4.6382,1.59-9.9902-1.18-14.2308s-7.49-6.7967-12.56-6.7967v15ZM616.57,999.293c0,8.287,6.716,14.997,15,14.997s15-6.71,15-14.997h-30Zm383-449.503l7.65,12.9c2.7-1.599,4.83-4.002,6.09-6.872l-13.74-6.028ZM164,330l-13.998,5.392c1.219,3.163,3.472,5.82,6.394,7.538L164,330ZM453.57,500.291h15c0-5.316-2.814-10.235-7.396-12.93l-7.604,12.93Zm-15,405.002c0,8.285,6.716,15,15,15s15-6.715,15-15h-30Zm567.44-113.559c7.17,4.143,16.35,1.684,20.49-5.49s1.68-16.348-5.49-20.49l-15,25.98ZM810.879,661.755l-7.655-12.9c-4.581,2.718-7.377,7.663-7.345,12.99s2.886,10.237,7.5,12.9l7.5-12.99ZM52.8434,73.1827L624.414,383.474l14.313-26.366L67.1566,46.8173L52.8434,73.1827ZM638.618,383.532L1221.55,73.241l-14.1-26.482L624.522,357.05l14.096,26.482ZM616.57,370.291v629.002h30v-629.002h-30ZM1200.76,53.9725L985.834,543.763l27.476,12.055L1228.24,66.0275l-27.48-12.055ZM177.998,324.608L73.9975,54.6084L46.0025,65.3916L150.002,335.392l27.996-10.784ZM156.396,342.93l289.57,170.291l15.208-25.86L171.604,317.07l-15.208,25.86ZM468.57,905.293v-405.002h-30v405.002h30ZM803.379,674.745L1006.01,791.734l15-25.98L818.379,648.765l-15,25.98Zm15.154-.09L1007.22,562.69l-15.304-25.8L803.224,648.855l15.309,25.8ZM60,75h1154.5v-30L60,45v30Z" fill="url(#e7xJ0Qshagi3-fill)"/></svg>
