<svg width="100" height="109" viewBox="0 0 100 109" fill="none" xmlns="http://www.w3.org/2000/svg">
<g clip-path="url(#clip0_65_823)">
<path fill-rule="evenodd" clip-rule="evenodd" d="M19.2739 4.53943C18.934 5.09242 18.7064 5.70695 18.6041 6.34793C18.5018 6.98892 18.5267 7.6438 18.6775 8.2752C18.8283 8.9066 19.102 9.50214 19.4829 10.0278C19.8639 10.5535 20.3446 10.999 20.8978 11.339L38.387 22.2174L55.8761 33.0958C67.9095 39.4961 65.8306 58.6224 52.1986 60.9653C48.2496 61.5676 44.2823 60.6266 40.2969 58.1425L25.1036 48.6921C24.5548 48.3222 23.9371 48.0666 23.2874 47.9408C22.6377 47.8149 16.0926 47.7361 15.4455 47.8744C14.7983 48.0127 16.8215 48.3117 16.28 48.6921C15.7386 49.0724 18.4713 49.8162 18.1218 50.3781C17.7723 50.9399 17.5889 51.3617 17.4871 52.0155C17.3853 52.6693 17.4163 53.337 17.5784 53.9786C17.7404 54.6201 18.0301 55.2225 18.4303 55.7496C18.8304 56.2768 19.3326 56.7179 19.907 57.0466C20.436 57.3756 36.8279 67.5715 36.6928 67.4875L36.8847 100.893C36.8661 101.824 37.0957 102.743 37.55 103.556C38.0042 104.37 33.2916 105.733 34.0943 106.206C46.6414 108.077 47.5041 105.149 47.3151 100.748L47.3151 71.2132C73.4912 73.4856 84.4592 38.0708 61.0475 24.7568L26.0803 3.00697C24.2805 2.37022 23.1004 2.45337 22.3609 2.37022C21.748 2.30131 8.7115 1.42692 19.2739 4.53943Z" fill="black"/>
<path fill-rule="evenodd" clip-rule="evenodd" d="M12.6558 4.53832C12.3159 5.09131 12.0883 5.70584 11.986 6.34683C11.8836 6.98782 11.9086 7.6427 12.0594 8.2741C12.2101 8.9055 12.4838 9.50105 12.8648 10.0267C13.2457 10.5524 13.7265 10.9979 14.2796 11.3379L31.7688 22.2163L49.258 33.0948C61.2914 39.4951 59.2125 58.6213 45.5805 60.9643C41.6315 61.5666 37.6643 60.6256 33.6788 58.1414L18.4855 48.691C17.9367 48.3211 17.319 48.0656 16.6693 47.9397C16.0196 47.8139 15.3512 47.8203 14.7041 47.9586C14.0569 48.0968 13.4444 48.3641 12.9029 48.7445C12.3615 49.1248 11.9023 49.6104 11.5528 50.1723C11.2034 50.7341 10.9708 51.3607 10.8689 52.0145C10.7671 52.6683 10.7982 53.3359 10.9602 53.9775C11.1223 54.6191 11.412 55.2214 11.8121 55.7486C12.2122 56.2757 12.7145 56.7168 13.2889 57.0455C13.8178 57.3746 30.2098 67.5705 30.0747 67.4865L30.2665 100.892C30.248 101.823 30.4776 102.742 30.9319 103.555C31.3861 104.369 32.0486 105.046 32.8513 105.519C36.6254 108.046 40.886 105.148 40.697 100.747L40.5457 71.0033C67.6625 74.2079 77.8412 38.0697 54.4294 24.7558L19.4622 3.00587C18.355 2.31092 17.0179 2.08202 15.7428 2.36912C14.4676 2.65622 13.3579 3.43601 12.6558 4.53832Z" fill="white"/>
</g>
<defs>
<clipPath id="clip0_65_823">
<rect width="100" height="108.382" fill="white"/>
</clipPath>
</defs>
</svg>
