<svg xmlns="http://www.w3.org/2000/svg" xmlns:xlink="http://www.w3.org/1999/xlink" width="328.08mm" height="169.36mm" viewBox="0 0 930 480.06"><defs><linearGradient id="linear-gradient" x1="724.97" y1="180.68" x2="849.56" y2="162.95" gradientUnits="userSpaceOnUse"><stop offset="0" stop-color="#e60012"/><stop offset="1" stop-color="#ee7800"/></linearGradient><linearGradient id="linear-gradient-2" x1="584.61" y1="271.68" x2="709.06" y2="250.57" xlink:href="#linear-gradient"/><linearGradient id="linear-gradient-3" x1="553.09" y1="288.84" x2="678.52" y2="323.09" xlink:href="#linear-gradient"/><linearGradient id="linear-gradient-4" x1="527.33" y1="269.82" x2="649.49" y2="269.82" xlink:href="#linear-gradient"/><linearGradient id="linear-gradient-5" x1="620.14" y1="251.27" x2="825.97" y2="264.62" xlink:href="#linear-gradient"/><linearGradient id="linear-gradient-6" x1="579.42" y1="227.79" x2="790.82" y2="156.86" xlink:href="#linear-gradient"/><linearGradient id="linear-gradient-7" x1="543.58" y1="227.13" x2="659.77" y2="165.16" xlink:href="#linear-gradient"/><linearGradient id="linear-gradient-8" x1="540.64" y1="221.68" x2="656.78" y2="159.74" xlink:href="#linear-gradient"/><linearGradient id="linear-gradient-9" x1="630.07" y1="111.98" x2="727.52" y2="15.67" xlink:href="#linear-gradient"/><linearGradient id="linear-gradient-10" x1="532.14" y1="102.97" x2="742.83" y2="-33.66" gradientTransform="translate(48.19 76.16) rotate(-4.58)" xlink:href="#linear-gradient"/><linearGradient id="linear-gradient-11" x1="570.47" y1="238.11" x2="670.75" y2="238.11" xlink:href="#linear-gradient"/></defs><title>アセット 3</title><g id="レイヤー_2" data-name="レイヤー 2"><g id="レイヤー_1-2" data-name="レイヤー 1"><path d="M723.37,211.94c-8.45,3.12-44.92,12.26-64.54,13.79-22.14,1.72-64.05,0-64.05,0s-36.72-6.89-78.13,17.84c0,0,21.9-26.63,97.13-45.69,67-12.34,68.22,0,126.07-24.29,8.15-3.82,12.33-9.36,13.68-11.77,5.07-9.15-.51-15.7-7.26-20,0,0,26.9,8.32,22.7,29.5C765.56,188.62,745.92,203.61,723.37,211.94Z" style="fill:url(#linear-gradient)"/><path d="M566.3,264.77s-24.83-7-30.59,8.43,7.17,36,7.17,36S512,273.4,534.05,256.61s57.2-14.4,81.93-10.43" style="fill:url(#linear-gradient-2)"/><path d="M556.07,266.17a188.16,188.16,0,0,1,24.42,9.21c10.43,5.33,22.31,11.63,33.43,16.34a167.91,167.91,0,0,0,18.55,6.43c20.13,5.62,41.29,5.81,56.62,3,0,0-22.33,12-49.58,10.76-9.89-.5-26.76-4.52-49.43-16.87-13.7-7.45-32.75-20.61-45.11-13.12s-.39,29.48-.39,29.48-19.55-20.77-13.37-34C531.21,277.36,539.26,263,556.07,266.17Z" style="fill:url(#linear-gradient-3)"/><path d="M601.81,252.91s54.91,31.15,109.43,14.76c11.2-3.37,22.8-10.19,33.23-21.44,0,0-6.17,18.54-26.27,33C705.69,289.11,690,292.4,684,292.92a168.5,168.5,0,0,1-39.16-1.7c-38.26-6.55-61.72-22.35-81.57-26.94-12.87-3-24.2-.65-37.15,10,0,0-1.16-20.61,27.83-26.12C583.41,242.53,601.81,252.91,601.81,252.91Z" style="fill:url(#linear-gradient-4)"/><path d="M533.21,261.22s-2-21.45,78.32-5.93c25.62,3.9,72.88,26.21,121.21-12.31,0,0-52,8.83-73.13,3.72C638.67,241.66,543.24,223.82,533.21,261.22Z" style="fill:url(#linear-gradient-5)"/><path d="M516.27,274.15c2.25,23.09,48.64,54.44,48.64,54.44h0c-35.59-21.34-36.58-45.91-30.63-63.33,4.63-13.55,3.81-15.1,13.13-24.47,4.72-4.74,16-14.25,34.37-22.25,18-7.8,43.07-14.12,51.79-16.65,23.83-6.89,49.07-14.79,81.54-36.77,19.35-13.2,30.35-25.29,35.92-36C774.37,83.66,728.47,80,728.47,80s14.77,6,7.6,18.85c-3.25,5.35-5,6.84-11.3,13.91-7.93,9-23.54,22.42-60.16,48.4-32.75,14.63-78.58,16.44-105.25,31.24-12,6.64-37.23,25.25-44.6,42.49-8.72,20.38,1.51,39.24,1.51,39.24" style="fill:url(#linear-gradient-6)"/><path d="M721.54,73.17s-8.93,54-42,78.88c-12.31,9.28-21.66,14.62-30.82,18.6-14.81,6.39-73,24.8-84.94,30-8.41,3.71-15.14,8.82-21.76,13.51-20.88,14.76-30.9,43.28-12.62,75.84-8,26.37-47.23-36.76.94-86.2,7.94-8.15,26.25-16.95,38.94-23.81,38.24-16.92,62.44-25.1,62.44-25.1Z" style="fill:url(#linear-gradient-7)"/><path d="M533.68,296.14c12.72,19.79,39.63,38.72,39.63,38.72s-91.57-27.84-80-102.57c6-38.68,42.58-49.67,63.14-56.79S744.62,119.37,711.42,0c0,0,33.14,57.15-3.23,118-20.42,34.19-59.93,46.87-88.07,56.66-22,7.64-78.63,26.07-93.65,46-6.87,9.09-9.66,15.35-10.81,26C514.42,258,523.47,280.29,533.68,296.14Z" style="fill:url(#linear-gradient-8)"/><path d="M690.82,22c-6.64-.16-14.53,4-21.19,16.61,0,0,12-16.51,20.12-.92s-18,76.79-77.33,116.14A213.92,213.92,0,0,0,646.55,131c22.14-17.85,49.64-45.51,56.63-70.95C710.12,34.8,701.81,22.24,690.82,22Z" style="fill:url(#linear-gradient-9)"/><path d="M629.79,96s-15.43-9.49-3.93-22.76c13.24-15.32,41.85-5,35.08,19.52-6.86,24.9-39.77,58.79-84.39,75.86a133.51,133.51,0,0,0,32.73-20.52c13.63-11.69,27.68-27.37,34.32-44.81C658.54,64.08,614.16,77.27,629.79,96Z" style="fill:url(#linear-gradient-10)"/><path d="M552.67,234.48S514.23,251,534.11,289.83c0,0-9.71-47.37,40.2-45.23S676.37,267.21,717,251.86s39.45-57.2,22.31-63.83a30.12,30.12,0,0,0-24.18,2s18.66-5.52,16.58,11.78c-1.64,13.37-15.91,23.11-35.06,25.75-33.43,4.61-73-5.4-93.75-6.4C565.24,219.38,552.67,234.48,552.67,234.48Z" style="fill:url(#linear-gradient-11)"/><path d="M685.74,336.74a117.59,117.59,0,0,0-28.9-3.39c-11.83,0-27.15,1.94-33.27,2.25a91,91,0,0,1-31.51-3s13,3.21,44.8-1.85c27.92-4.42,70-3,103.42,24.08,55.47,44.83,17.53,92.81,112.7,108.42,0,0-69.81,3.73-93.65-52.63C742.91,371.83,725.1,346.11,685.74,336.74Z" style="fill:#45b035"/><path d="M643.77,327.07s82.4-20.78,128.15,6.28,57.69,88.64,111.8,83.19c0,0-36.65,11.76-70.66-25.86C772.66,346,762.29,316.73,643.77,327.07Z" style="fill:#e60012"/><path d="M717.73,332.34s33.72,4.59,57.2,27.1c11.44,11,20.41,34.25,46.06,52.47,20.62,14.66,50.49,27.85,90.27,20,0,0-43.42,19-91.28-8.94S782.43,354,717.73,332.34Z" style="fill:#ffd900"/><path d="M723.09,369.92c-35.94-35.34-82.17-30.38-82.17-30.38q44.6,2.63,71.44,29.5a144.38,144.38,0,0,1,27.54,38c5.82,10,11.06,23.55,23.59,34.87,4.75,4.3,13.07,8.71,20.2,12.46,0,0-20.08-9.36-32.74-38.56C740.77,392.29,735.23,381.72,723.09,369.92Z" style="fill:#c9c2b1"/><path d="M722.39,316.66s60.91-2.87,98.07,46.28C859.65,414.78,930,405.38,930,405.38s-60.91,2.06-103.74-45.47C792.72,322.68,775.48,314.14,722.39,316.66Z" style="fill:#006bb6"/><path d="M787.21,410S829,464.05,925.79,448.72C925.79,448.72,826.16,481.11,787.21,410Z" style="fill:#ee7500"/><path d="M688,365s20.46,2.08,47.84,52.35c15.66,28.72,43,61.43,94.27,62.42,0,0-36.8,4.38-71.59-19.72S724.67,384.18,688,365Z" style="fill:#f19cc1"/><path d="M622,340.7c-43,.53-81.31-7.64-102.49-20.73-35.29-21.8-41.43-55-42.08-72-.16-4.18-.09-9.55,0-13.6,0-2.44-.54-12-.85-14.77A86.19,86.19,0,0,0,474,205.58c-3.06-10.35-5.7-18.25-9.82-25.86-9.8-18-22.84-29.8-32.5-35.06a47.1,47.1,0,0,0-14.46-5.15c-4.51-.78-7.5.56-7.3-.47.17-.79,4.92-1.24,5.85-1.31,1.82-.12,3.77.07,5.48.13a49,49,0,0,1,7.9,1.09c30.63,6.49,40,44.24,41,43.74.23-.13.44-.44.13-1.52a125.59,125.59,0,0,0-5.35-13.92,198.74,198.74,0,0,0-9.79-18.49c-.41-.64-.81-1.28-1.23-1.9,12.45-.61,13.54-13.33,13.54-13.33s-1.69,4.83-8.42,6.72c-8.4,2.37-11.62-2.1-11.62-2.1l0,.07-.2-.23c17-4.15,12.15-22.58,12.15-22.58-.71,13.73-17.16,14.35-20.76,14.32,4-1.39,15.09-6.61,10.85-21.28-4.06-14-19-12.35-24.13-10.68,0,0,14-3.71,16.74,9.39s-17.8,14.92-24.58,13.33l.12.06a37.56,37.56,0,0,0-19.08,2.06c-11.59,4.62-16.81,15-18.67,19.93-.61,1.64-.87,3.6-1.35,5a15.38,15.38,0,0,1-5.57,7.29,44.82,44.82,0,0,1-11.3,5.69,35.81,35.81,0,0,1-9.89,1.89c13.47,3.68,23.75,2.78,28.8.5,8.61-3.86,9.9-9.25,9.9-9.25s2.08-.66,3.08-.94c32-8.82,50.86,11.24,59.82,29.47,5.33,10.87,4.79,13.28,5.67,22.43a108.94,108.94,0,0,1-.28,17.6c-.23,2.76-2.15,20.41-2.52,22.78-3.67,23.24-2.46,43.35,11.32,65.45,29.26,46.91,102.74,38.7,138.59,32.89A158,158,0,0,0,622,340.7Z" style="fill:#e60012"/><path d="M538.41,288.5s-3.72,37.52,65.74,52.09c0,0-37.52-1.55-66.36-23.25S526.94,265.57,553,268C553,268,536.56,274.85,538.41,288.5Z" style="fill:#e60012"/><path d="M50.33,220.69c-1.11-4.6-2.21-7.46-3.6-9-1.65-1.84-3.68-2.39-9.68-2.39h-5v44.15c0,7.64.83,8.38,9.21,9v2.95H12.54v-2.95c7.92-.65,8.85-1.39,8.85-9V209.27H17.24c-7.56,0-9.31.82-10.6,2.57-1.39,1.57-2.4,4.52-3.51,8.95H0c.37-6.27.92-12.82,1.11-17.61H3.23c1.38,2.12,2.58,2.31,5.16,2.31H45.26a5.71,5.71,0,0,0,5.07-2.31h2.12c0,4,.46,11.62.92,17.33Z" style="fill:#231815"/><path d="M129,234.8c0,19.81-14.19,32-31.43,32-17.79,0-30.69-13.36-30.69-31.06,0-16,11.43-31.62,31.8-31.62C115.12,204.1,129,216.45,129,234.8Zm-49.68-1.11c0,16.32,7.83,29.41,20.09,29.41,9.31,0,17.15-8.58,17.15-25.82,0-18.71-8.39-29.49-19.64-29.49C87.38,207.79,79.36,217.28,79.36,233.69Z" style="fill:#231815"/><path d="M285.21,234.8c0,19.81-14.19,32-31.43,32-17.79,0-30.69-13.36-30.69-31.06,0-16,11.43-31.62,31.8-31.62C271.29,204.1,285.21,216.45,285.21,234.8Z" style="fill:#231815"/><path d="M208.4,208.53c-7.28.64-7.93,1.1-7.93,8.94v36c0,7.74.74,8.29,7.93,8.94v2.95H181.49v-2.95c7.46-.65,8.2-1.2,8.2-8.94V235.9H162.31v17.61c0,7.74.74,8.29,7.84,8.94v2.95H143.79v-2.95c7-.65,7.83-1.2,7.83-8.94v-36c0-7.84-.83-8.39-8.11-8.94v-3h26.36v3c-6.82.55-7.56,1.1-7.56,8.94v14h27.38v-14c0-7.84-.65-8.3-7.65-8.94v-3H208.4Z" style="fill:#231815"/><path d="M342.78,265.4c-5.16-6.36-12.72-16.5-19.91-26.18-2-2.68-3.22-3.14-4.7-2.95v17c0,7.93.92,8.57,8.11,9.22v2.95H300.11v-2.95c6.72-.65,7.64-1.29,7.64-9.22V217.75c0-8.12-.82-8.67-7.92-9.22v-3h25.9v3c-6.73.55-7.56,1.2-7.56,9.22v15.76c2-.56,4.15-1.94,6.82-4.61a154.58,154.58,0,0,0,13.83-15.39c2.39-3,2.3-4.24-2-4.8l-1.75-.18v-3h23.23v3c-6.09.55-9.31,1.56-14.75,6.54-4.7,4.43-9.59,9.59-14.38,14.57,6.17,8.84,14.29,18.89,20.09,26,4.24,5,6.55,6.27,10.51,6.82v2.95Z" style="fill:#231815"/><path d="M433.85,208.53c-5.26.27-7.47,1.93-7.93,5.43a97.51,97.51,0,0,0-.65,13.56v9.12c0,10.14-1.57,18-6.82,23.51-4.24,4.42-10.5,6.63-16.87,6.63-5.8,0-11.43-1.29-15.76-4.61-5.25-4.15-7.83-11-7.83-21.75V218.21c0-8.58-.83-9-7.84-9.68v-3h26.36v3c-6.91.55-7.74,1.1-7.74,9.68v20.36c0,14.2,5.26,22.4,15.76,22.4,11.8,0,16.41-9.3,16.41-24.7v-8.75a94.7,94.7,0,0,0-.83-13.74c-.55-3.32-2.58-4.89-8.94-5.25v-3h22.68Z" style="fill:#231815"/><path d="M23.89,157.31a10,10,0,0,0-1.43-3.86c-.71-.92-1.42-1.25-4.48-1.25H15.21v20.48c0,3.35.34,3.77,4.28,4v1.22H7.17V176.7c3.77-.25,4.11-.67,4.11-4V152.2H8.89c-3.48,0-4.32.37-4.86,1.29a12.32,12.32,0,0,0-1.39,3.82H1.35c.16-2.6.42-5.41.5-7.67h.88c.59,1,1.13,1.05,2.3,1.05H21.67a2.19,2.19,0,0,0,2.13-1.05h.92c0,1.89.21,5.07.42,7.54Z"/><path d="M40.86,163.51c1.3-2.23,3.06-4.44,5-4.44a2.38,2.38,0,0,1,2.51,2.17,2.53,2.53,0,0,1-1.46,2.27,1,1,0,0,1-1.14-.13,2.48,2.48,0,0,0-1.84-.84c-1,0-2.26,1.09-3.14,3.31v7.72c0,2.71.21,3,3.43,3.22v1.13h-10v-1.13c2.56-.25,2.85-.51,2.85-3.22v-8.76c0-2.69-.21-2.81-2.51-3.19v-1a28.58,28.58,0,0,0,6.2-1.68v4.53Z"/><path d="M72.12,174.28c-2.64,3.39-5.57,4.14-7,4.14-5.24,0-8.26-4.19-8.26-8.92a10.8,10.8,0,0,1,2.81-7.38,8.68,8.68,0,0,1,6.2-3.05,6.52,6.52,0,0,1,6.37,6.45c0,.84-.17,1.22-1,1.38-.67.09-5.9.5-10.77.67.09,5.49,3.23,7.84,6.16,7.84a7,7,0,0,0,4.78-2.06Zm-11.35-8.47c2.22,0,4.4,0,6.7-.12.71,0,1-.21,1-.84,0-2.18-1.3-4.23-3.47-4.23C63.11,160.62,61.31,162.42,60.77,165.81Z"/><path d="M94.63,178.42a3.19,3.19,0,0,1-2.06-.84,3.65,3.65,0,0,1-1-1.8c-1.68,1.13-3.69,2.64-4.86,2.64a5.17,5.17,0,0,1-5.16-5.15c0-2.1,1.09-3.35,3.36-4.11,2.51-.88,5.61-2,6.53-2.76v-.84c0-2.93-1.34-4.61-3.35-4.61a2.25,2.25,0,0,0-1.8.8,7,7,0,0,0-1.22,2.8,1.26,1.26,0,0,1-1.34,1,2.13,2.13,0,0,1-2-1.84c0-.67.55-1.13,1.38-1.76a19.12,19.12,0,0,1,6.42-2.93,5.57,5.57,0,0,1,3.51,1.13c1.56,1.25,2,3,2,5.24v7.62c0,1.89.72,2.47,1.43,2.47a3.7,3.7,0,0,0,1.51-.42l.41,1.13Zm-3.19-10.55c-.88.45-2.6,1.25-3.52,1.67-1.55.75-2.43,1.51-2.43,3.06a3,3,0,0,0,2.89,3.18,5.07,5.07,0,0,0,3.06-1.34Z"/><path d="M117.72,164.6c-.84-2.48-2.27-4.15-4.32-4.15a2.6,2.6,0,0,0-2.6,2.76c0,1.76,1.51,2.73,3.44,3.56,3.22,1.35,5.36,2.81,5.36,5.79,0,3.89-3.6,5.86-7,5.86a8.61,8.61,0,0,1-4.9-1.42,22.25,22.25,0,0,1-.71-5.07l1.17-.17c.76,2.72,2.64,5.24,5.2,5.24a2.79,2.79,0,0,0,2.85-2.81c0-1.76-1.09-2.72-3.27-3.77-2.43-1.13-5.32-2.55-5.32-5.82,0-3,2.55-5.53,6.49-5.53a9,9,0,0,1,3.81.75,32.69,32.69,0,0,1,.93,4.48Z"/><path d="M149.39,176.91a51.24,51.24,0,0,0-6.41,1.51l-.29-.25v-2.89a27.15,27.15,0,0,1-2.89,2.05,6.27,6.27,0,0,1-3.31,1.09c-2.93,0-5.24-1.8-5.24-6.2V164c0-2.31-.17-2.47-2.55-2.89V160a57.26,57.26,0,0,0,6.36-.75c-.12,1.38-.16,3.39-.16,6.16v5.69c0,3.56,1.76,4.57,3.56,4.57a6,6,0,0,0,4.23-1.88V164c0-2.35-.21-2.52-3.14-2.89V160a48,48,0,0,0,6.83-.75v13.91c0,2.13.33,2.42,1.93,2.55l1.08.08Z"/><path d="M164.61,163.51c1.3-2.23,3.06-4.44,5-4.44a2.39,2.39,0,0,1,2.52,2.17,2.54,2.54,0,0,1-1.47,2.27,1,1,0,0,1-1.13-.13,2.49,2.49,0,0,0-1.84-.84c-1,0-2.27,1.09-3.15,3.31v7.72c0,2.71.22,3,3.44,3.22v1.13H158v-1.13c2.55-.25,2.85-.51,2.85-3.22v-8.76c0-2.69-.21-2.81-2.51-3.19v-1a28.5,28.5,0,0,0,6.19-1.68v4.53Z"/><path d="M195.87,174.28c-2.64,3.39-5.57,4.14-7,4.14-5.23,0-8.25-4.19-8.25-8.92a10.8,10.8,0,0,1,2.81-7.38,8.68,8.68,0,0,1,6.2-3.05,6.52,6.52,0,0,1,6.37,6.45c0,.84-.17,1.22-1,1.38-.67.09-5.91.5-10.77.67.09,5.49,3.23,7.84,6.16,7.84a7,7,0,0,0,4.78-2.06Zm-11.36-8.47c2.23,0,4.4,0,6.71-.12.71,0,1-.21,1-.84,0-2.18-1.3-4.23-3.48-4.23C186.86,160.62,185.06,162.42,184.51,165.81Z"/><path d="M204.34,177.92v-1.13c2.63-.3,3-.51,3-3.27V153.79c0-2.77-.25-2.89-2.85-3.14v-1a36.79,36.79,0,0,0,6.5-1.47v25.35c0,2.76.33,3,3,3.27v1.13Z"/><path d="M235.89,178.42a3.24,3.24,0,0,1-2.06-.84,3.73,3.73,0,0,1-1-1.8c-1.68,1.13-3.69,2.64-4.86,2.64a5.16,5.16,0,0,1-5.15-5.15c0-2.1,1.09-3.35,3.35-4.11,2.51-.88,5.61-2,6.53-2.76v-.84c0-2.93-1.34-4.61-3.35-4.61a2.27,2.27,0,0,0-1.8.8,7,7,0,0,0-1.21,2.8,1.26,1.26,0,0,1-1.34,1,2.13,2.13,0,0,1-2-1.84c0-.67.54-1.13,1.38-1.76a19,19,0,0,1,6.41-2.93,5.58,5.58,0,0,1,3.52,1.13c1.55,1.25,2,3,2,5.24v7.62c0,1.89.71,2.47,1.42,2.47a3.7,3.7,0,0,0,1.51-.42l.42,1.13Zm-3.19-10.55c-.87.45-2.59,1.25-3.52,1.67-1.55.75-2.42,1.51-2.42,3.06a3,3,0,0,0,2.89,3.18,5.07,5.07,0,0,0,3-1.34Z"/><path d="M259.77,177.92v-1.13c2.35-.25,2.64-.55,2.64-3.48v-7c0-2.93-1.08-4.65-3.64-4.65a7.15,7.15,0,0,0-4.32,2v9.89c0,2.8.25,3,2.6,3.22v1.13h-9.26v-1.13c2.77-.3,3-.51,3-3.27v-8.67c0-2.64-.25-2.77-2.48-3.19v-1a31.11,31.11,0,0,0,6.16-1.72v3.31c.84-.63,1.72-1.26,2.77-1.93a6.11,6.11,0,0,1,3.43-1.25c3.35,0,5.41,2.34,5.41,6.41v8.09c0,2.8.25,2.92,2.64,3.22v1.13Z"/><path d="M298.2,176.83a49.53,49.53,0,0,0-6.83,1.59v-2.68l-2.56,1.55a6.55,6.55,0,0,1-3.05,1.13c-3.4,0-7.88-3.06-7.88-9s5-10.39,10.89-10.39a8.46,8.46,0,0,1,2.6.42V153.7c0-2.63-.25-2.76-3.14-3v-1.05a43.19,43.19,0,0,0,6.83-1.47V173c0,2.22.25,2.43,1.84,2.59l1.3.13Zm-6.83-14a4.9,4.9,0,0,0-4.06-2.18c-1.81,0-5.28,1.55-5.28,7.66,0,5,3.06,7.38,5.61,7.38a6.68,6.68,0,0,0,3.73-1.3Z"/><path d="M39.44,289.24c-6.64.55-7.47,1.19-7.47,9v31.8c0,11.15-1.29,19.08-8.85,25.53a27.25,27.25,0,0,1-10.23,5.63l-1.29-3.14c5-2.3,7.75-5.9,8.67-11.52a109.55,109.55,0,0,0,1-17.79V298.27c0-7.84-.83-8.48-8-9v-3H39.44Z" style="fill:#231815"/><path d="M94.53,346.11v-2.95c5.53-.83,6.09-1.85,4.8-5.72-1-3-2.58-7.37-4.24-11.8H76.74c-1.19,3.42-2.49,6.92-3.59,10.6-1.57,5-1.11,6.09,5.62,6.92v2.95H58.4v-2.95c6-.83,7.19-1.66,10.33-9.59l18.89-47.65,4.06-1.11c5.9,16,11.7,32.63,17.7,48.49,3,8.11,4.23,9.12,10.13,9.86v2.95Zm-8.29-46.18H86c-2.67,7.09-5.16,14.28-7.74,21.2h15.3Z" style="fill:#231815"/><path d="M167,286.2c7,0,12.26,1,15.95,3.68,4.05,2.86,6.45,7.37,6.45,13.37,0,12.26-9,17.88-18.53,19.08a19.06,19.06,0,0,1-3.87.09l-6.54-1.57v13.37c0,7.74.83,8.29,8.85,8.94v2.95H142v-2.95c7.1-.65,7.93-1.29,7.93-9V298.27c0-7.93-.83-8.48-7.37-9v-3Zm-6.54,31.24a16.88,16.88,0,0,0,5.62.92c4.33,0,11.71-2.67,11.71-14.84,0-10.23-6.09-13.92-12.35-13.92a7.17,7.17,0,0,0-4.06.92c-.65.56-.92,1.57-.92,3.42Z" style="fill:#231815"/><path d="M246.21,346.11v-2.95c5.53-.83,6.08-1.85,4.79-5.72-1-3-2.58-7.37-4.24-11.8H228.42c-1.2,3.42-2.49,6.92-3.6,10.6-1.56,5-1.1,6.09,5.63,6.92v2.95H210.08v-2.95c6-.83,7.19-1.66,10.32-9.59l18.9-47.65,4-1.11c5.9,16,11.71,32.63,17.7,48.49,3,8.11,4.24,9.12,10.14,9.86v2.95Zm-8.3-46.18h-.27c-2.68,7.09-5.16,14.28-7.75,21.2H245.2Z" style="fill:#231815"/><path d="M356.88,289.15c-5,.27-7,1.56-7.46,5.71a115.78,115.78,0,0,0-.74,15.39V347h-3.87L306.1,300.2h-.19v21.67a137.84,137.84,0,0,0,.65,15.11c.46,4.33,2.21,5.81,8.85,6.18v2.95H293.1v-2.95c5.16-.37,7.38-1.75,7.84-5.9a144.36,144.36,0,0,0,.73-15.39V302.23c0-6.27-.09-7.56-1.84-9.68-1.85-2.3-3.78-3-7.93-3.4V286.2h15.86l36.41,42.49h.27V310.25c0-8.3-.46-12.62-.64-15.3-.56-4-2.49-5.44-9.13-5.8V286.2h22.21Z" style="fill:#231815"/><path d="M414.87,317.66v29.23h-4v-4.76l-8.27,3,0-4.63,8.24-2.7v-8.85h-8.6v-3.84h8.6v-7.42Zm7.35,0v8.1l8-2.82v4.44l-8,2.65V342.6h5.1v-4.89H431v8.83H418.26V317.66Z" style="fill:#231815"/><polygon points="420.86 291.84 431.1 291.84 431.1 288.05 418.53 288.05 418.53 284.27 414.53 284.27 414.53 288.05 402.15 288.05 402.15 291.84 412.07 291.84 401.61 304.35 401.64 310.33 414.53 294.64 414.53 313.63 418.53 313.63 418.53 305.79 418.53 302.15 418.53 294.92 431.7 310.14 431.68 304.48 420.86 291.84" style="fill:#231815"/><rect x="408.85" y="305.02" width="15.61" height="3.78" style="fill:#231815"/><path d="M398.69,319.58v3.27H386v1.74h10.71v13.06H389l10.2,5.79,0,4.12L386,339.48V347h-3.81v-7.22l-12.51,7.8,0-4,10-5.89h-7.84V324.59h10.37v-1.74H369.67v-3.27h12.55v-2.07H386v2.07Zm-16.47,8h-6.63v2.11h6.63Zm-6.63,4.89v2.2h6.63v-2.2Zm17.24-2.78v-2.11H386v2.11Zm0,5v-2.2H386v2.2Z" style="fill:#231815"/><path d="M371.58,285v28h25.75V285Zm4.14,11.48v-7.71h17.49V309.2H375.72V296.43Z" style="fill:#231815"/><polyline points="397.33 295.78 371.58 295.78 375.72 299.56 393.21 299.56" style="fill:#231815"/><path d="M235.53,233.69c0,16.32,7.83,29.41,20.09,29.41,9.31,0,17.15-8.58,17.15-25.82,0-18.71-8.39-29.49-19.64-29.49C243.55,207.79,235.53,217.28,235.53,233.69Z" style="fill:#e60012"/><path d="M756.18,103.82c2-3.83-.84-2.25-.84-2.25-5.33,4.29-7.76,6.72-17.2,1.64s-13.7-13.12-17.22-20.53-6.73-2.63-5.81,1.26-.56,17.5-4.32,22.22-2.24,8.14-3.33,10.72-10.27-2.47-10.27-2.47l.28,4.89s-1,1.78-6.58,5.77-1.26,6.62.34,9.23a5.13,5.13,0,0,1-.67,6.14c-.92,1-1,2.05.69,3.59s3.45.64,4.27-2,4-2,6.67-1.7,2.94-2.12,2-3.3-5.4-2.48-7.87-4.64-.57-4.66,2.28-6,2.14,2.67,4.42,4c1.74,1,2.91-1.32,4.84-2.93a13.34,13.34,0,0,0-3.72-1.73s13.12-1.65,18.38,7.19c1.15.85,2,1.52,2.46,1.76,1.79,1,4.2,3.7,5.5,1.68s4.94-8.11,6.77-10.07,4.36-2.77,7.89-2.92,6.64-1.44,10.55-2.64,4.12-3.05,4.12-3.05C750.66,119.71,754.14,107.66,756.18,103.82Z" style="fill:#fff"/><path d="M667.1,191.93s-3.35,1-4.35,2.77-2.22,5.43,0,5.13,3-2.65,3.08-3.45S667.1,191.93,667.1,191.93Z" style="fill:#f9db00"/><path d="M588.74,250.46c.73,0,14-2.44,14-2.44s5.08-1.15,7.07.24,3.36,5.49,3.36,5.49l-.32,4.88-8.53,6.63-16.15,4.95-8-4.84.24-6.83Z" style="fill:#fff"/><path d="M574.45,252.91,566.8,250l-6.24-4.17-3,3.52-10.65,1.83-1.73,6.39s3.41,6.95,4,8.64a7.92,7.92,0,0,0,2.3,3.08l3.27-4.25,1.07-4.18,1.49.92.21,5.84-6.8,7.54-2,8.46L558,290l7.74-1.49,5.08-14.79,6.09-7Z" style="fill:#fff"/><path d="M683,210.07s-6.82,2.87-7.34,2.16c-2-2.76-.14,2.68-1.54.42,0,0-1-3.41-1.51-3.53-1.54-.35-4.07,2.26-4.62,2.28-.73,0-3.17-.13-3.17-.13l-3.7-2-11.72,6.94-1.28-1.66L652,206.6l-5.12-.31-15.55,22.22-1.56,4.2-3.42-.37-2.59-4.3-10.4,2.08s-19.33-2.5-22.2-.94-18.6,11.37-18.6,11.37l-5.57.93.16,4.62,14.27,4.13,16-3.72L608,244.19l7.88,2.6,5.25,3.76L616.28,258l8.54,7.25s8.9-10.3,9.62-10.56,7.54-.27,7.54-.27l.07-4.87a52.53,52.53,0,0,0,5.66,1.5c.73,0,10.79,2.06,11.73,1s2-4,2.78-4,5.07,5.43,5.07,5.43l4.43-5.52,5.26-2.86,2.16,4.29,10.84.46,2.16-9.91.62-17.32,1.58-7.05Z" style="fill:#fff"/><path d="M703.66,196.19c.84,2.25-.42-6,3.81-10.13s5.94-9.88,3.59-18a71.94,71.94,0,0,0-4.83-12.69s1.47-8.49-.82-9.82-4.43-1.56-5.64-.34-1.81,1.69-.32,2.94a13.46,13.46,0,0,0,3.47.38c1.63-.1,2.5,1.89.92,3.88s-3.82.39-3.82.39a1.5,1.5,0,0,1-2.49.54c-1.75-1.27-2.92-5.45-2.92-5.45s-2.36,6.77-4.5,6.53-1.44,5.79-1.44,5.79,0,4.87-2.51,5.67,1.43,4.21,1.43,4.21a24.73,24.73,0,0,1-3.06,13.18,47.52,47.52,0,0,0-4.93,10.54c-.39,1-8,6.16-10.4,8.59s-8.06,6.86-8.06,6.86l-5.78,3.37,0,2.32L671,210.85s2.55,4.32,4.37,4.14,5.8-.75,7.37-.3,7,2.67,7,2.67l4.61-1.7s2.65-7.8,2.87-9.91c.41-3.74.49-7,2.33-8.94S702.83,193.94,703.66,196.19Z" style="fill:#f9db00"/></g></g></svg>