<?xml version="1.0" encoding="UTF-8" standalone="no"?>
<svg
     xmlns:dc="http://purl.org/dc/elements/1.1/"
     xmlns:cc="http://creativecommons.org/ns#"
     xmlns:rdf="http://www.w3.org/1999/02/22-rdf-syntax-ns#"
     xmlns:svg="http://www.w3.org/2000/svg"
     xmlns="http://www.w3.org/2000/svg"
     version="1.1"
     id="svg6776"
     viewBox="0 0 300 157.11629"
     height="157.11629"
     width="300">
    <defs
         id="defs6778" />
    <metadata
         id="metadata6781">
        <rdf:RDF>
            <cc:Work
                 rdf:about="">
                <dc:format>image/svg+xml</dc:format>
                <dc:type
                     rdf:resource="http://purl.org/dc/dcmitype/StillImage" />
                <dc:title></dc:title>
            </cc:Work>
        </rdf:RDF>
    </metadata>
    <g
         transform="translate(-653.96732,-360.46502)"
         id="layer1">
        <g
             transform="matrix(3.580543,0,0,-3.580543,654.96732,417.49336)"
             id="g6660">
            <path
                 id="path6662"
                 style="fill:#d7063b;fill-opacity:1;fill-rule:nonzero;stroke:none"
                 d="m 0,0 0,-3.557 3.561,0 0,-8.466 4.024,0 0,8.466 2.852,0 3.284,-8.466 5.044,0 c 1.088,4.113 2.514,7.935 4.257,11.267 4.79,9.137 12.242,14.297 20.919,14.297 7.969,0 14.791,-4.953 17.687,-12.004 l 0.948,0 C 59.573,9.779 51.793,15.648 42.669,15.648 32.647,15.648 24.107,9.074 18.859,-0.697 17.983,-2.332 16.952,-4.764 16.037,-6.945 L 13.467,0 0,0 Z" />
        </g>
        <g
             transform="matrix(3.580543,0,0,-3.580543,805.26597,450.92131)"
             id="g6664">
            <path
                 id="path6666"
                 style="fill:#002b60;fill-opacity:1;fill-rule:nonzero;stroke:none"
                 d="m 0,0 c -1.525,0 -1.701,2.025 -1.701,3.316 0,1.123 0.131,3.325 1.701,3.325 1.622,0 1.733,-2.202 1.75,-3.325 C 1.733,2.025 1.688,0 0,0 m 0,9.529 c -3.649,0 -5.793,-2.185 -5.793,-6.213 0,-4.095 2.144,-6.211 5.793,-6.211 3.654,0 5.84,2.116 5.84,6.211 0,4.028 -2.186,6.213 -5.84,6.213" />
        </g>
        <g
             transform="matrix(3.580543,0,0,-3.580543,932.06411,450.92131)"
             id="g6668">
            <path
                 id="path6670"
                 style="fill:#002b60;fill-opacity:1;fill-rule:nonzero;stroke:none"
                 d="m 0,0 c -1.526,0 -1.7,2.025 -1.7,3.316 0,1.123 0.125,3.325 1.7,3.325 1.621,0 1.731,-2.202 1.75,-3.325 C 1.731,2.025 1.687,0 0,0 m 0,9.529 c -3.655,0 -5.796,-2.185 -5.796,-6.213 0,-4.095 2.141,-6.211 5.796,-6.211 3.653,0 5.838,2.116 5.838,6.211 0,4.028 -2.185,6.213 -5.838,6.213" />
        </g>
        <g
             transform="matrix(3.580543,0,0,-3.580543,783.94346,417.53599)"
             id="g6672">
            <path
                 id="path6674"
                 style="fill:#002b60;fill-opacity:1;fill-rule:nonzero;stroke:none"
                 d="m 0,0 -11.141,0 0,-3.531 3.537,0 0,-8.481 4.049,0 0,8.481 3.555,0 L 0,0 Z" />
        </g>
        <g
             transform="matrix(3.580543,0,0,-3.580543,853.63126,417.50769)"
             id="g6676">
            <path
                 id="path6678"
                 style="fill:#002b60;fill-opacity:1;fill-rule:nonzero;stroke:none"
                 d="m 0,0 -2.684,-4.723 -0.032,0 0,4.715 -4.022,0 0,-12.012 4.022,0 0,5.094 0.032,0 2.801,-5.094 4.838,0 -4.128,6.385 2.971,4.44 4.357,-9.323 c -4.614,-9.33 -12.501,-15.052 -21.321,-15.052 -7.974,0 -14.8,4.963 -17.694,12.023 l -0.927,0 -0.021,-0.006 c 3,-8.242 10.784,-14.117 19.912,-14.117 9.875,0 18.318,6.387 23.588,15.934 1.905,3.451 3.518,7.332 5.043,11.74 l -4.264,0 C 11.743,-2.24 11.047,-4.117 10.298,-5.893 L 7.769,0 0,0 Z" />
        </g>
    </g>
</svg>
